<svg xmlns="http://www.w3.org/2000/svg" width="1280" height="820" viewBox="0 0 1280 820" role="img" aria-label="Automation screenshot">
  <defs>
    <linearGradient id="icon" x1="0" y1="0" x2="1" y2="1">
      <stop offset="0" stop-color="#7dd3fc"/><stop offset="0.52" stop-color="#6366f1"/><stop offset="1" stop-color="#8b5cf6"/>
    </linearGradient>
    <filter id="shadow" x="-20%" y="-20%" width="140%" height="140%"><feDropShadow dx="0" dy="18" stdDeviation="18" flood-color="#0f172a" flood-opacity="0.14"/></filter>
    <style>
      text{font-family:-apple-system,BlinkMacSystemFont,'SF Pro Display','Segoe UI',sans-serif;fill:#111827} .muted{fill:#6b7280}.tiny{font-size:14px}.small{font-size:16px}.body{font-size:18px}.title{font-size:26px;font-weight:700}.section{font-size:18px;font-weight:700}.btn{font-size:15px;font-weight:600}.chip{font-size:14px;font-weight:600}.mono{font-family:'SF Mono',Menlo,monospace;font-size:15px}.green{fill:#16a34a}.orange{fill:#f59e0b}.sidebar{fill:#f5f6f8}.panel{fill:#f4f5f7}.line{stroke:#e5e7eb;stroke-width:1}.accent{fill:#4f46e5}.white{fill:#fff}
    </style>
  </defs>
  <rect width="1280" height="820" rx="28" fill="#eef2f7"/>
  <g filter="url(#shadow)">
    <rect x="54" y="42" width="1172" height="724" rx="22" fill="white"/>
    <rect x="54" y="42" width="230" height="724" rx="22" class="sidebar"/>
    <circle cx="86" cy="70" r="8" fill="#ff5f57"/><circle cx="112" cy="70" r="8" fill="#ffbd2e"/><circle cx="138" cy="70" r="8" fill="#28c840"/>
    <text x="170" y="77" class="small muted">FeatherMac</text>
    <rect x="72" y="100" width="194" height="36" rx="8" fill="transparent"/><text x="102" y="124" class="small muted">Library</text><circle cx="88" cy="118" r="6" fill="#9ca3af"/><rect x="72" y="148" width="194" height="36" rx="8" fill="transparent"/><text x="102" y="172" class="small muted">Sources</text><circle cx="88" cy="166" r="6" fill="#9ca3af"/><rect x="72" y="196" width="194" height="36" rx="8" fill="transparent"/><text x="102" y="220" class="small muted">Certificates</text><circle cx="88" cy="214" r="6" fill="#9ca3af"/><rect x="72" y="244" width="194" height="36" rx="8" fill="transparent"/><text x="102" y="268" class="small muted">Signing</text><circle cx="88" cy="262" r="6" fill="#9ca3af"/><rect x="72" y="292" width="194" height="36" rx="8" fill="#e4e7ec"/><text x="102" y="316" class="small ">Automation</text><circle cx="88" cy="310" r="6" fill="#4f46e5"/><rect x="72" y="340" width="194" height="36" rx="8" fill="transparent"/><text x="102" y="364" class="small muted">Settings</text><circle cx="88" cy="358" r="6" fill="#9ca3af"/>
    <rect x="284" y="92" width="942" height="1" fill="#e5e7eb"/>
    <text x="306" y="74" class="title">Automation</text>
    <rect x="1032" y="55" width="80" height="34" rx="8" fill="#f3f4f6"/><text x="1053" y="77" class="btn">Import</text>
    <rect x="1124" y="55" width="80" height="34" rx="8" fill="#f3f4f6"/><text x="1144" y="77" class="btn">Refresh</text>
    <text x="306" y="126" class="tiny muted">Generated with demo data for public documentation.</text>
    <rect x="306" y="150" width="878" height="210" rx="12" class="panel"/>
<text x="326" y="184" class="section">Workflow</text>
<text x="326" y="226" class="small muted">Imported IPA</text><rect x="432" y="204" width="332" height="36" rx="8" fill="white"/><text x="448" y="228" class="small">Feather iOS  com.example.feather</text>
<text x="800" y="226" class="small muted">Certificate</text><rect x="870" y="204" width="292" height="36" rx="8" fill="white"/><text x="886" y="228" class="small">Apple Development Demo</text>
<text x="326" y="272" class="small muted">Bundle Prefix</text><rect x="432" y="250" width="332" height="36" rx="8" fill="white"/><text x="448" y="274" class="small">com.example.feathermac</text>
<rect x="870" y="254" width="18" height="18" rx="4" fill="#4f46e5"/><text x="900" y="270" class="small">Install after workflow</text>
<text x="326" y="314" class="small muted">Suggested Bundle ID</text><text x="474" y="314" class="small">com.example.feathermac.feather</text>
<text x="726" y="314" class="small muted">Last Signed IPA</text><text x="848" y="314" class="mono">~/Signed/Feather-signed.ipa</text>
<rect x="326" y="326" width="126" height="34" rx="8" fill="#4f46e5"/><text x="348" y="348" class="btn white">Run Workflow</text>
<rect x="464" y="326" width="128" height="34" rx="8" fill="#e5e7eb"/><text x="484" y="348" class="btn">Install Result</text>
<rect x="326" y="382" width="128" height="36" rx="18" fill="#ecfdf5"/><circle cx="348" cy="400" r="8" fill="#22c55e"/><text x="364" y="406" class="chip">Select IPA</text><rect x="468" y="382" width="128" height="36" rx="18" fill="#ecfdf5"/><circle cx="490" cy="400" r="8" fill="#22c55e"/><text x="506" y="406" class="chip">Create Profile</text><rect x="610" y="382" width="128" height="36" rx="18" fill="#ecfdf5"/><circle cx="632" cy="400" r="8" fill="#22c55e"/><text x="648" y="406" class="chip">Replace Icon</text><rect x="752" y="382" width="128" height="36" rx="18" fill="#ecfdf5"/><circle cx="774" cy="400" r="8" fill="#22c55e"/><text x="790" y="406" class="chip">Sign</text><rect x="894" y="382" width="128" height="36" rx="18" fill="#ecfdf5"/><circle cx="916" cy="400" r="8" fill="#22c55e"/><text x="932" y="406" class="chip">Install</text>
<rect x="306" y="446" width="878" height="74" rx="12" class="panel"/><text x="326" y="478" class="section">Icon Replacement</text><text x="326" y="506" class="small muted">Replace app icon with demo-icon.png</text><rect x="1048" y="468" width="114" height="34" rx="8" fill="#f3f4f6"/><text x="1068" y="490" class="btn">Choose Icon</text>
<rect x="306" y="548" width="878" height="138" rx="12" class="panel"/><text x="326" y="582" class="section">App Store Connect API</text>
<text x="326" y="622" class="small muted">Issuer ID</text><rect x="402" y="600" width="286" height="36" rx="8" fill="white"/><text x="418" y="624" class="mono">00000000-0000-demo</text>
<text x="718" y="622" class="small muted">Key ID</text><rect x="776" y="600" width="174" height="36" rx="8" fill="white"/><text x="792" y="624" class="mono">DEMO123456</text>
<text x="326" y="664" class="small muted">Bundle Prefix</text><rect x="432" y="642" width="332" height="36" rx="8" fill="white"/><text x="448" y="666" class="small">com.example.feathermac</text>
<rect x="806" y="646" width="18" height="18" rx="4" fill="#4f46e5"/><text x="836" y="662" class="small">Register connected device</text>
<text x="326" y="708" class="tiny muted">The API key creates Bundle IDs, registers the connected device, and downloads profiles.</text>

    <text x="746" y="728" class="section">Activity</text>
    <rect x="746" y="742" width="438" height="28" rx="8" fill="#f8fafc"/>
    <text x="762" y="762" class="tiny green">Success</text><text x="826" y="762" class="tiny muted">Workflow is ready.</text>
  </g>
</svg>
