<svg xmlns="http://www.w3.org/2000/svg" width="1280" height="820" viewBox="0 0 1280 820" role="img" aria-label="Library screenshot">
  <defs>
    <linearGradient id="icon" x1="0" y1="0" x2="1" y2="1">
      <stop offset="0" stop-color="#7dd3fc"/><stop offset="0.52" stop-color="#6366f1"/><stop offset="1" stop-color="#8b5cf6"/>
    </linearGradient>
    <filter id="shadow" x="-20%" y="-20%" width="140%" height="140%"><feDropShadow dx="0" dy="18" stdDeviation="18" flood-color="#0f172a" flood-opacity="0.14"/></filter>
    <style>
      text{font-family:-apple-system,BlinkMacSystemFont,'SF Pro Display','Segoe UI',sans-serif;fill:#111827} .muted{fill:#6b7280}.tiny{font-size:14px}.small{font-size:16px}.body{font-size:18px}.title{font-size:26px;font-weight:700}.section{font-size:18px;font-weight:700}.btn{font-size:15px;font-weight:600}.chip{font-size:14px;font-weight:600}.mono{font-family:'SF Mono',Menlo,monospace;font-size:15px}.green{fill:#16a34a}.orange{fill:#f59e0b}.sidebar{fill:#f5f6f8}.panel{fill:#f4f5f7}.line{stroke:#e5e7eb;stroke-width:1}.accent{fill:#4f46e5}.white{fill:#fff}
    </style>
  </defs>
  <rect width="1280" height="820" rx="28" fill="#eef2f7"/>
  <g filter="url(#shadow)">
    <rect x="54" y="42" width="1172" height="724" rx="22" fill="white"/>
    <rect x="54" y="42" width="230" height="724" rx="22" class="sidebar"/>
    <circle cx="86" cy="70" r="8" fill="#ff5f57"/><circle cx="112" cy="70" r="8" fill="#ffbd2e"/><circle cx="138" cy="70" r="8" fill="#28c840"/>
    <text x="170" y="77" class="small muted">FeatherMac</text>
    <rect x="72" y="100" width="194" height="36" rx="8" fill="#e4e7ec"/><text x="102" y="124" class="small ">Library</text><circle cx="88" cy="118" r="6" fill="#4f46e5"/><rect x="72" y="148" width="194" height="36" rx="8" fill="transparent"/><text x="102" y="172" class="small muted">Sources</text><circle cx="88" cy="166" r="6" fill="#9ca3af"/><rect x="72" y="196" width="194" height="36" rx="8" fill="transparent"/><text x="102" y="220" class="small muted">Certificates</text><circle cx="88" cy="214" r="6" fill="#9ca3af"/><rect x="72" y="244" width="194" height="36" rx="8" fill="transparent"/><text x="102" y="268" class="small muted">Signing</text><circle cx="88" cy="262" r="6" fill="#9ca3af"/><rect x="72" y="292" width="194" height="36" rx="8" fill="transparent"/><text x="102" y="316" class="small muted">Automation</text><circle cx="88" cy="310" r="6" fill="#9ca3af"/><rect x="72" y="340" width="194" height="36" rx="8" fill="transparent"/><text x="102" y="364" class="small muted">Settings</text><circle cx="88" cy="358" r="6" fill="#9ca3af"/>
    <rect x="284" y="92" width="942" height="1" fill="#e5e7eb"/>
    <text x="306" y="74" class="title">Library</text>
    <rect x="1032" y="55" width="80" height="34" rx="8" fill="#f3f4f6"/><text x="1053" y="77" class="btn">Import</text>
    <rect x="1124" y="55" width="80" height="34" rx="8" fill="#f3f4f6"/><text x="1144" y="77" class="btn">Refresh</text>
    <text x="306" y="126" class="tiny muted">Generated with demo data for public documentation.</text>
    <rect x="306" y="150" width="430" height="552" rx="10" fill="#ffffff" stroke="#e5e7eb"/>
<text x="326" y="182" class="section">Imported</text>
<rect x="326" y="200" width="390" height="70" rx="10" fill="#f9fafb"/>
<rect x="344" y="216" width="42" height="42" rx="10" fill="url(#icon)"/><text x="402" y="236" class="body">Feather iOS</text><text x="402" y="257" class="tiny muted">com.example.feather  2.8.2</text>
<text x="326" y="306" class="section">Signed</text>
<rect x="326" y="324" width="390" height="70" rx="10" fill="#e9edf5"/>
<rect x="344" y="340" width="42" height="42" rx="10" fill="url(#icon)"/><text x="402" y="360" class="body">Feather iOS Signed</text><text x="402" y="381" class="tiny muted">com.example.feathermac.feather  2.8.2</text>
<rect x="326" y="408" width="390" height="70" rx="10" fill="#f9fafb"/>
<rect x="344" y="424" width="42" height="42" rx="10" fill="url(#icon)"/><text x="402" y="444" class="body">Delta</text><text x="402" y="465" class="tiny muted">com.example.delta  1.6.3</text>
<rect x="766" y="158" width="86" height="86" rx="18" fill="url(#icon)"/><text x="794" y="213" class="title white">ƒ</text>
<text x="876" y="184" class="title">Feather iOS Signed</text><text x="876" y="211" class="body muted">com.example.feathermac.feather</text><text x="876" y="236" class="body muted">Version 2.8.2</text>
<rect x="876" y="264" width="72" height="34" rx="8" fill="#eef2ff"/><text x="899" y="286" class="btn accent">Sign</text>
<rect x="958" y="264" width="84" height="34" rx="8" fill="#f3f4f6"/><text x="982" y="286" class="btn">Install</text>
<rect x="1052" y="264" width="106" height="34" rx="8" fill="#f3f4f6"/><text x="1072" y="286" class="btn">Export IPA</text>
<rect x="766" y="332" width="418" height="146" rx="10" fill="#f9fafb"/>
<text x="786" y="364" class="small muted">Kind</text><text x="900" y="364" class="small">Signed</text>
<text x="786" y="398" class="small muted">Payload</text><text x="900" y="398" class="mono">~/Library/Application Support/FeatherMac/Signed/Demo</text>
<text x="786" y="432" class="small muted">IPA</text><text x="900" y="432" class="mono">~/FeatherMac/Signed/Feather-signed.ipa</text>
<rect x="766" y="504" width="132" height="34" rx="8" fill="#f3f4f6"/><text x="786" y="526" class="btn">Reveal</text>

    <text x="746" y="728" class="section">Activity</text>
    <rect x="746" y="742" width="438" height="28" rx="8" fill="#f8fafc"/>
    <text x="762" y="762" class="tiny green">Success</text><text x="826" y="762" class="tiny muted">Workflow is ready.</text>
  </g>
</svg>
