<svg xmlns="http://www.w3.org/2000/svg" width="1280" height="820" viewBox="0 0 1280 820" role="img" aria-label="签名 screenshot">
  <defs>
    <linearGradient id="icon" x1="0" y1="0" x2="1" y2="1">
      <stop offset="0" stop-color="#7dd3fc"/><stop offset="0.52" stop-color="#6366f1"/><stop offset="1" stop-color="#8b5cf6"/>
    </linearGradient>
    <filter id="shadow" x="-20%" y="-20%" width="140%" height="140%"><feDropShadow dx="0" dy="18" stdDeviation="18" flood-color="#0f172a" flood-opacity="0.14"/></filter>
    <style>
      text{font-family:-apple-system,BlinkMacSystemFont,'SF Pro Display','Segoe UI',sans-serif;fill:#111827} .muted{fill:#6b7280}.tiny{font-size:14px}.small{font-size:16px}.body{font-size:18px}.title{font-size:26px;font-weight:700}.section{font-size:18px;font-weight:700}.btn{font-size:15px;font-weight:600}.chip{font-size:14px;font-weight:600}.mono{font-family:'SF Mono',Menlo,monospace;font-size:15px}.green{fill:#16a34a}.orange{fill:#f59e0b}.sidebar{fill:#f5f6f8}.panel{fill:#f4f5f7}.line{stroke:#e5e7eb;stroke-width:1}.accent{fill:#4f46e5}.white{fill:#fff}
    </style>
  </defs>
  <rect width="1280" height="820" rx="28" fill="#eef2f7"/>
  <g filter="url(#shadow)">
    <rect x="54" y="42" width="1172" height="724" rx="22" fill="white"/>
    <rect x="54" y="42" width="230" height="724" rx="22" class="sidebar"/>
    <circle cx="86" cy="70" r="8" fill="#ff5f57"/><circle cx="112" cy="70" r="8" fill="#ffbd2e"/><circle cx="138" cy="70" r="8" fill="#28c840"/>
    <text x="170" y="77" class="small muted">FeatherMac</text>
    <rect x="72" y="100" width="194" height="36" rx="8" fill="transparent"/><text x="102" y="124" class="small muted">资料库</text><circle cx="88" cy="118" r="6" fill="#9ca3af"/><rect x="72" y="148" width="194" height="36" rx="8" fill="transparent"/><text x="102" y="172" class="small muted">源</text><circle cx="88" cy="166" r="6" fill="#9ca3af"/><rect x="72" y="196" width="194" height="36" rx="8" fill="transparent"/><text x="102" y="220" class="small muted">证书</text><circle cx="88" cy="214" r="6" fill="#9ca3af"/><rect x="72" y="244" width="194" height="36" rx="8" fill="#e4e7ec"/><text x="102" y="268" class="small ">签名</text><circle cx="88" cy="262" r="6" fill="#4f46e5"/><rect x="72" y="292" width="194" height="36" rx="8" fill="transparent"/><text x="102" y="316" class="small muted">自动配置</text><circle cx="88" cy="310" r="6" fill="#9ca3af"/><rect x="72" y="340" width="194" height="36" rx="8" fill="transparent"/><text x="102" y="364" class="small muted">设置</text><circle cx="88" cy="358" r="6" fill="#9ca3af"/>
    <rect x="284" y="92" width="942" height="1" fill="#e5e7eb"/>
    <text x="306" y="74" class="title">签名</text>
    <rect x="1032" y="55" width="80" height="34" rx="8" fill="#f3f4f6"/><text x="1053" y="77" class="btn">导入</text>
    <rect x="1124" y="55" width="80" height="34" rx="8" fill="#f3f4f6"/><text x="1144" y="77" class="btn">刷新</text>
    <text x="306" y="126" class="tiny muted">使用演示数据生成，适合公开文档展示。</text>
    <rect x="306" y="150" width="878" height="72" rx="12" class="panel"/>
<text x="326" y="194" class="small muted">应用</text><rect x="372" y="172" width="250" height="36" rx="8" fill="white"/><text x="388" y="196" class="small">Feather iOS</text>
<text x="650" y="194" class="small muted">证书</text><rect x="724" y="172" width="260" height="36" rx="8" fill="white"/><text x="740" y="196" class="small">Apple Development Demo</text>
<rect x="1008" y="172" width="142" height="36" rx="8" fill="#4f46e5"/><text x="1032" y="196" class="btn white">开始签名</text>
<rect x="306" y="248" width="878" height="152" rx="12" class="panel"/>
<text x="326" y="288" class="small muted">应用名称</text><rect x="432" y="266" width="286" height="36" rx="8" fill="white"/><text x="448" y="290" class="small">Feather Mac Demo</text>
<text x="746" y="288" class="small muted">Bundle ID</text><rect x="842" y="266" width="302" height="36" rx="8" fill="white"/><text x="858" y="290" class="small">com.example.feathermac.feather</text>
<text x="326" y="342" class="small muted">版本</text><rect x="432" y="320" width="286" height="36" rx="8" fill="white"/><text x="448" y="344" class="small">2.8.2</text>
<text x="746" y="342" class="small muted">签名类型</text><rect x="842" y="320" width="302" height="36" rx="8" fill="white"/><text x="858" y="344" class="small">证书</text>
<rect x="306" y="426" width="418" height="96" rx="12" class="panel"/><text x="326" y="460" class="section">文件</text><text x="326" y="492" class="small muted">替换图标 demo-icon.png</text><rect x="604" y="464" width="94" height="34" rx="8" fill="#f3f4f6"/><text x="632" y="486" class="btn">Icon</text>
<rect x="766" y="426" width="418" height="168" rx="12" class="panel"/><text x="786" y="460" class="section">Info.plist 修改</text>
<rect x="786" y="478" width="18" height="18" rx="4" fill="#4f46e5"/><text x="816" y="494" class="small">文件共享</text><rect x="786" y="508" width="18" height="18" rx="4" fill="#4f46e5"/><text x="816" y="524" class="small">ProMotion</text><rect x="786" y="538" width="18" height="18" rx="4" fill="#4f46e5"/><text x="816" y="554" class="small">iPad 全屏</text><rect x="786" y="568" width="18" height="18" rx="4" fill="#4f46e5"/><text x="816" y="584" class="small">Liquid Glass 兼容补丁</text>
<rect x="306" y="548" width="418" height="112" rx="12" class="panel"/><text x="326" y="582" class="section">插件和动态库</text><text x="326" y="614" class="small muted">@executable_path / Frameworks</text><rect x="326" y="628" width="140" height="34" rx="8" fill="#f3f4f6"/><text x="348" y="650" class="btn">Add .dylib/.deb</text>
<rect x="766" y="622" width="418" height="64" rx="12" class="panel"/><text x="786" y="656" class="section">签名后</text><rect x="918" y="640" width="18" height="18" rx="4" fill="#4f46e5"/><text x="948" y="656" class="small">签名后安装</text>

    <text x="746" y="728" class="section">活动</text>
    <rect x="746" y="742" width="438" height="28" rx="8" fill="#f8fafc"/>
    <text x="762" y="762" class="tiny green">成功</text><text x="826" y="762" class="tiny muted">工作流已准备就绪。</text>
  </g>
</svg>
