<svg xmlns="http://www.w3.org/2000/svg" width="1280" height="720" viewBox="0 0 1280 720" role="img" aria-labelledby="title desc">
  <title id="title">FeatherMac app overview mockup</title>
  <desc id="desc">A sanitized mock screenshot of FeatherMac showing the library, signing, automation, and settings sections.</desc>
  <rect width="1280" height="720" rx="34" fill="#0b1220"/>
  <rect x="38" y="38" width="1204" height="644" rx="26" fill="#111827"/>
  <rect x="38" y="38" width="230" height="644" rx="26" fill="#0f172a"/>
  <circle cx="76" cy="72" r="9" fill="#ef4444"/>
  <circle cx="106" cy="72" r="9" fill="#f59e0b"/>
  <circle cx="136" cy="72" r="9" fill="#22c55e"/>
  <text x="74" y="140" fill="#e5e7eb" font-family="-apple-system,BlinkMacSystemFont,Segoe UI,sans-serif" font-size="24" font-weight="700">FeatherMac</text>
  <g font-family="-apple-system,BlinkMacSystemFont,Segoe UI,sans-serif" font-size="18">
    <rect x="62" y="178" width="182" height="46" rx="12" fill="#2563eb"/>
    <text x="96" y="207" fill="#fff">资料库 / Library</text>
    <text x="96" y="270" fill="#cbd5e1">源 / Sources</text>
    <text x="96" y="326" fill="#cbd5e1">证书 / Certs</text>
    <text x="96" y="382" fill="#cbd5e1">签名 / Signing</text>
    <text x="96" y="438" fill="#cbd5e1">自动配置 / CI</text>
    <text x="96" y="494" fill="#cbd5e1">设置 / Settings</text>
  </g>
  <text x="304" y="102" fill="#f8fafc" font-family="-apple-system,BlinkMacSystemFont,Segoe UI,sans-serif" font-size="30" font-weight="700">签名工作台 / Signing Workbench</text>
  <rect x="304" y="132" width="878" height="170" rx="18" fill="#1f2937"/>
  <text x="332" y="176" fill="#e5e7eb" font-family="-apple-system,BlinkMacSystemFont,Segoe UI,sans-serif" font-size="21" font-weight="700">Imported IPA</text>
  <rect x="332" y="198" width="390" height="46" rx="10" fill="#111827"/>
  <text x="356" y="228" fill="#93c5fd" font-family="-apple-system,BlinkMacSystemFont,Segoe UI,sans-serif" font-size="18">ExampleApp  com.example.app</text>
  <text x="766" y="176" fill="#e5e7eb" font-family="-apple-system,BlinkMacSystemFont,Segoe UI,sans-serif" font-size="21" font-weight="700">Certificate</text>
  <rect x="766" y="198" width="366" height="46" rx="10" fill="#111827"/>
  <text x="790" y="228" fill="#86efac" font-family="-apple-system,BlinkMacSystemFont,Segoe UI,sans-serif" font-size="18">Developer Certificate</text>
  <rect x="332" y="332" width="390" height="250" rx="18" fill="#1f2937"/>
  <text x="362" y="378" fill="#f8fafc" font-family="-apple-system,BlinkMacSystemFont,Segoe UI,sans-serif" font-size="24" font-weight="700">自动配置</text>
  <text x="362" y="420" fill="#cbd5e1" font-family="-apple-system,BlinkMacSystemFont,Segoe UI,sans-serif" font-size="18">Bundle prefix: com.example</text>
  <text x="362" y="458" fill="#cbd5e1" font-family="-apple-system,BlinkMacSystemFont,Segoe UI,sans-serif" font-size="18">Profile: create or reuse</text>
  <text x="362" y="496" fill="#cbd5e1" font-family="-apple-system,BlinkMacSystemFont,Segoe UI,sans-serif" font-size="18">Install after signing: on</text>
  <rect x="362" y="526" width="180" height="42" rx="12" fill="#2563eb"/>
  <text x="392" y="554" fill="#fff" font-family="-apple-system,BlinkMacSystemFont,Segoe UI,sans-serif" font-size="18" font-weight="700">Run Workflow</text>
  <rect x="766" y="332" width="366" height="250" rx="18" fill="#1f2937"/>
  <text x="796" y="378" fill="#f8fafc" font-family="-apple-system,BlinkMacSystemFont,Segoe UI,sans-serif" font-size="24" font-weight="700">安全同步</text>
  <text x="796" y="420" fill="#cbd5e1" font-family="-apple-system,BlinkMacSystemFont,Segoe UI,sans-serif" font-size="18">Export / import config</text>
  <text x="796" y="458" fill="#cbd5e1" font-family="-apple-system,BlinkMacSystemFont,Segoe UI,sans-serif" font-size="18">iCloud Drive backup</text>
  <text x="796" y="496" fill="#cbd5e1" font-family="-apple-system,BlinkMacSystemFont,Segoe UI,sans-serif" font-size="18">Secrets stay out of git</text>
  <rect x="796" y="526" width="170" height="42" rx="12" fill="#0f766e"/>
  <text x="824" y="554" fill="#fff" font-family="-apple-system,BlinkMacSystemFont,Segoe UI,sans-serif" font-size="18" font-weight="700">Sync iCloud</text>
</svg>
